<svg width="92" height="90" viewBox="0 0 92 90" fill="none" xmlns="http://www.w3.org/2000/svg">
<path d="M49.9752 24.6511C49.9752 23.4379 49.4933 22.2745 48.6355 21.4167C47.7776 20.5588 46.6142 20.0769 45.401 20.0769C44.1879 20.0769 43.0244 20.5588 42.1666 21.4167C41.3088 22.2745 40.8268 23.4379 40.8268 24.6511C40.8268 25.8642 41.3088 27.0277 42.1666 27.8855C43.0244 28.7434 44.1879 29.2253 45.401 29.2253C46.6142 29.2253 47.7776 28.7434 48.6355 27.8855C49.4933 27.0277 49.9752 25.8642 49.9752 24.6511ZM25.2746 40.2033C26.4878 40.2033 27.6513 39.7214 28.5091 38.8635C29.3669 38.0057 29.8488 36.8423 29.8488 35.6291C29.8488 34.416 29.3669 33.2525 28.5091 32.3947C27.6513 31.5369 26.4878 31.0549 25.2746 31.0549C24.0615 31.0549 22.898 31.5369 22.0402 32.3947C21.1824 33.2525 20.7005 34.416 20.7005 35.6291C20.7005 36.8423 21.1824 38.0057 22.0402 38.8635C22.898 39.7214 24.0615 40.2033 25.2746 40.2033ZM12.467 63.989C10.4429 63.989 8.80762 65.6243 8.80762 67.6483C8.80762 69.6724 10.4429 71.3077 12.467 71.3077H78.3351C80.3592 71.3077 81.9944 69.6724 81.9944 67.6483C81.9944 65.6243 80.3592 63.989 78.3351 63.989H12.467ZM65.5274 40.2033C66.7405 40.2033 67.904 39.7214 68.7618 38.8635C69.6196 38.0057 70.1016 36.8423 70.1016 35.6291C70.1016 34.416 69.6196 33.2525 68.7618 32.3947C67.904 31.5369 66.7405 31.0549 65.5274 31.0549C64.3142 31.0549 63.1508 31.5369 62.293 32.3947C61.4351 33.2525 60.9532 34.416 60.9532 35.6291C60.9532 36.8423 61.4351 38.0057 62.293 38.8635C63.1508 39.7214 64.3142 40.2033 65.5274 40.2033ZM31.6785 52.2677L34.7546 57.974C35.4751 59.3119 37.1332 59.8036 38.4711 59.0946C39.8091 58.3856 40.3008 56.7161 39.5918 55.3781L35.4408 47.6592C35.6352 47.4648 35.8067 47.2475 35.9325 46.9959L38.9972 41.2897V47.522C38.9972 49.546 40.6324 51.1813 42.6565 51.1813H48.1455C50.1696 51.1813 51.8049 49.546 51.8049 47.522V41.2897L54.881 46.9959C55.0182 47.2475 55.1783 47.4648 55.3727 47.6592L51.2217 55.3781C50.5012 56.7161 51.0044 58.3742 52.3423 59.0946C53.6803 59.8151 55.3384 59.3119 56.0588 57.974L59.1235 52.2677V56.6703C59.1235 58.6944 60.7588 60.3297 62.7829 60.3297H68.2719C70.296 60.3297 71.9312 58.6944 71.9312 56.6703V52.2677L75.0074 57.974C75.7278 59.3119 77.3859 59.8036 78.7239 59.0946C80.0618 58.3856 80.5536 56.7161 79.8446 55.3781L75.5105 47.339C73.7609 44.0799 70.3531 42.0444 66.6481 42.0444H64.4067C62.5427 42.0444 60.7588 42.559 59.215 43.4853L55.3727 36.361C53.6231 33.1019 50.2153 31.0664 46.5103 31.0664H44.2803C40.5753 31.0664 37.1789 33.1019 35.4179 36.361L31.5756 43.4853C30.0318 42.559 28.2479 42.0444 26.3839 42.0444H24.154C20.4489 42.0444 17.0526 44.0799 15.2915 47.339L10.9689 55.3667C10.2485 56.7046 10.7516 58.3628 12.0896 59.0832C13.4275 59.8036 15.0857 59.3005 15.8061 57.9625L18.8708 52.2677V56.6703C18.8708 58.6944 20.5061 60.3297 22.5301 60.3297H28.0192C30.0432 60.3297 31.6785 58.6944 31.6785 56.6703V52.2677Z" fill="#0E323D"/>
<circle cx="76.5" cy="74" r="15" fill="white"/>
<path d="M85.5649 68C85.9067 68 86.2241 68.061 86.5171 68.1831C86.8101 68.3052 87.0705 68.4801 87.2983 68.708C87.5262 68.9359 87.6971 69.1922 87.811 69.4771C87.925 69.7619 87.9901 70.0833 88.0063 70.4414C88.0063 70.7669 87.9453 71.0802 87.8232 71.3813C87.7012 71.6825 87.5262 71.9469 87.2983 72.1748L77.606 81.8794C77.3781 82.1073 77.1136 82.2822 76.8125 82.4043C76.5114 82.5264 76.1981 82.5915 75.8726 82.5996C75.547 82.5996 75.2337 82.5386 74.9326 82.4165C74.6315 82.2944 74.367 82.1154 74.1392 81.8794L69.7202 77.4604C69.4924 77.2326 69.3174 76.9681 69.1953 76.667C69.0732 76.3659 69.0081 76.0526 69 75.7271C69 75.3853 69.0651 75.0679 69.1953 74.7749C69.3255 74.4819 69.5005 74.2215 69.7202 73.9937C69.9399 73.7658 70.1963 73.5949 70.4893 73.481C70.7822 73.367 71.1037 73.3019 71.4536 73.2856C71.7791 73.2856 72.0924 73.3467 72.3936 73.4688C72.6947 73.5908 72.9591 73.7658 73.187 73.9937L75.8726 76.6792L83.8315 68.708C84.0594 68.4801 84.3239 68.3052 84.625 68.1831C84.9261 68.061 85.2394 68 85.5649 68Z" fill="#ED3517"/>
</svg>
