<svg width="24" height="24" viewBox="0 0 24 24" fill="none" xmlns="http://www.w3.org/2000/svg">
<g clip-path="url(#clip0_901_967)">
<path d="M15.6364 11C17.1455 11 18.3545 9.66 18.3545 8C18.3545 6.34 17.1455 5 15.6364 5C14.1273 5 12.9091 6.34 12.9091 8C12.9091 9.66 14.1273 11 15.6364 11ZM8.36364 11C9.87273 11 11.0818 9.66 11.0818 8C11.0818 6.34 9.87273 5 8.36364 5C6.85455 5 5.63636 6.34 5.63636 8C5.63636 9.66 6.85455 11 8.36364 11ZM8.36364 13C6.24545 13 2 14.17 2 16.5V19H14.7273V16.5C14.7273 14.17 10.4818 13 8.36364 13ZM15.6364 13C15.3727 13 15.0727 13.02 14.7545 13.05C15.8091 13.89 16.5455 15.02 16.5455 16.5V19H22V16.5C22 14.17 17.7545 13 15.6364 13Z" fill="#ED3517"/>
</g>
<defs>
<clipPath id="clip0_901_967">
<rect width="24" height="24" fill="white"/>
</clipPath>
</defs>
</svg>
