<svg width="45" height="40" viewBox="0 0 45 40" fill="none" xmlns="http://www.w3.org/2000/svg">
<path d="M28.0097 19L10.9805 16V38.1677C10.9807 38.4085 11.0283 38.6469 11.1207 38.8694C11.213 39.0918 11.3482 39.2938 11.5187 39.464C11.6891 39.6341 11.8914 39.769 12.114 39.861C12.3365 39.953 12.575 40.0002 12.8159 40H42.2005C42.4415 40.0006 42.6804 39.9537 42.9033 39.8619C43.1262 39.7701 43.3289 39.6352 43.4996 39.4651C43.6704 39.2949 43.8059 39.0927 43.8984 38.8701C43.991 38.6474 44.0387 38.4088 44.0389 38.1677V30L28.0097 19Z" fill="#185C37"/>
<path d="M28.0097 6.45928e-07H12.8159C12.575 -0.000201472 12.3365 0.0470322 12.114 0.139005C11.8914 0.230978 11.6891 0.365888 11.5187 0.536034C11.3482 0.706179 11.213 0.908227 11.1207 1.13064C11.0283 1.35306 10.9807 1.59148 10.9805 1.83231V10L28.0097 20L37.0266 23L44.0389 20V10L28.0097 6.45928e-07Z" fill="#21A366"/>
<path d="M10.9805 10H28.0097V20H10.9805V10Z" fill="#107C41"/>
<path opacity="0.1" d="M23.1682 8H10.9805V33H23.1682C23.6538 32.9976 24.1189 32.8039 24.4628 32.4609C24.8066 32.118 25.0014 31.6533 25.0051 31.1677V9.83231C25.0014 9.34667 24.8066 8.88203 24.4628 8.53906C24.1189 8.19609 23.6538 8.00241 23.1682 8Z" fill="black"/>
<path opacity="0.2" d="M22.1666 9H10.9805V34H22.1666C22.6523 33.9976 23.1174 33.8039 23.4612 33.4609C23.8051 33.118 23.9999 32.6533 24.0035 32.1677V10.8323C23.9999 10.3467 23.8051 9.88203 23.4612 9.53906C23.1174 9.19609 22.6523 9.00241 22.1666 9Z" fill="black"/>
<path opacity="0.2" d="M22.1666 9H10.9805V32H22.1666C22.6523 31.9976 23.1174 31.8039 23.4612 31.4609C23.8051 31.118 23.9999 30.6533 24.0035 30.1677V10.8323C23.9999 10.3467 23.8051 9.88203 23.4612 9.53906C23.1174 9.19609 22.6523 9.00241 22.1666 9Z" fill="black"/>
<path opacity="0.2" d="M21.1651 9H10.9805V32H21.1651C21.6507 31.9976 22.1159 31.8039 22.4597 31.4609C22.8035 31.118 22.9984 30.6533 23.002 30.1677V10.8323C22.9984 10.3467 22.8035 9.88203 22.4597 9.53906C22.1159 9.19609 21.6507 9.00241 21.1651 9Z" fill="black"/>
<path d="M2.79884 9H21.165C21.6515 8.99959 22.1183 9.19236 22.4627 9.53594C22.8072 9.87952 23.0011 10.3458 23.0019 10.8323V29.1677C23.0011 29.6542 22.8072 30.1205 22.4627 30.4641C22.1183 30.8076 21.6515 31.0004 21.165 31H2.79884C2.55788 31.0004 2.31921 30.9533 2.09646 30.8614C1.87372 30.7696 1.67126 30.6347 1.50067 30.4645C1.33007 30.2943 1.19469 30.0922 1.10224 29.8697C1.0098 29.6472 0.962116 29.4086 0.961914 29.1677V10.8323C0.962116 10.5914 1.0098 10.3528 1.10224 10.1303C1.19469 9.90777 1.33007 9.70566 1.50067 9.53549C1.67126 9.36532 1.87372 9.23045 2.09646 9.13856C2.31921 9.04668 2.55788 8.9996 2.79884 9Z" fill="url(#paint0_linear_567_25247)"/>
<path d="M6.6543 25.9584L10.5174 19.983L6.97891 14.0415H9.82045L11.7512 17.8461C11.9297 18.2061 12.0589 18.4738 12.1174 18.6522H12.1435C12.2697 18.363 12.4035 18.0845 12.5435 17.8122L14.6081 14.0476H17.2235L13.5943 19.9553L17.3158 25.963H14.5328L12.302 21.7922C12.1984 21.6129 12.1104 21.425 12.0389 21.2307H12.002C11.9369 21.42 11.8502 21.6013 11.7435 21.7707L9.4466 25.9584H6.6543Z" fill="white"/>
<path d="M42.2021 2.58262e-06H28.0098V10H44.039V1.83231C44.0388 1.59136 43.9911 1.3528 43.8987 1.13029C43.8062 0.907773 43.6708 0.705656 43.5002 0.535491C43.3296 0.365325 43.1272 0.230447 42.9044 0.138565C42.6817 0.0466827 42.443 -0.000401787 42.2021 2.58262e-06Z" fill="#33C481"/>
<path d="M28.0098 20H44.039V30H28.0098V20Z" fill="#107C41"/>
<defs>
<linearGradient id="paint0_linear_567_25247" x1="4.79884" y1="7.56" x2="19.165" y2="32.44" gradientUnits="userSpaceOnUse">
<stop stop-color="#18884F"/>
<stop offset="0.5" stop-color="#117E43"/>
<stop offset="1" stop-color="#0B6631"/>
</linearGradient>
</defs>
</svg>
