<svg width="92" height="90" viewBox="0 0 92 90" fill="none" xmlns="http://www.w3.org/2000/svg">
<path d="M49.9752 24.6511C49.9752 23.438 49.4933 22.2745 48.6355 21.4167C47.7776 20.5589 46.6142 20.0769 45.401 20.0769C44.1879 20.0769 43.0244 20.5589 42.1666 21.4167C41.3088 22.2745 40.8268 23.438 40.8268 24.6511C40.8268 25.8643 41.3088 27.0277 42.1666 27.8855C43.0244 28.7434 44.1879 29.2253 45.401 29.2253C46.6142 29.2253 47.7776 28.7434 48.6355 27.8855C49.4933 27.0277 49.9752 25.8643 49.9752 24.6511ZM25.2746 40.2033C26.4878 40.2033 27.6513 39.7214 28.5091 38.8636C29.3669 38.0057 29.8488 36.8423 29.8488 35.6291C29.8488 34.416 29.3669 33.2525 28.5091 32.3947C27.6513 31.5369 26.4878 31.055 25.2746 31.055C24.0615 31.055 22.898 31.5369 22.0402 32.3947C21.1824 33.2525 20.7005 34.416 20.7005 35.6291C20.7005 36.8423 21.1824 38.0057 22.0402 38.8636C22.898 39.7214 24.0615 40.2033 25.2746 40.2033ZM12.467 63.989C10.4429 63.989 8.80762 65.6243 8.80762 67.6484C8.80762 69.6724 10.4429 71.3077 12.467 71.3077H78.3351C80.3592 71.3077 81.9944 69.6724 81.9944 67.6484C81.9944 65.6243 80.3592 63.989 78.3351 63.989H12.467ZM65.5274 40.2033C66.7405 40.2033 67.904 39.7214 68.7618 38.8636C69.6196 38.0057 70.1016 36.8423 70.1016 35.6291C70.1016 34.416 69.6196 33.2525 68.7618 32.3947C67.904 31.5369 66.7405 31.055 65.5274 31.055C64.3142 31.055 63.1508 31.5369 62.293 32.3947C61.4351 33.2525 60.9532 34.416 60.9532 35.6291C60.9532 36.8423 61.4351 38.0057 62.293 38.8636C63.1508 39.7214 64.3142 40.2033 65.5274 40.2033ZM31.6785 52.2677L34.7546 57.974C35.4751 59.3119 37.1332 59.8036 38.4711 59.0947C39.8091 58.3857 40.3008 56.7161 39.5918 55.3781L35.4408 47.6592C35.6352 47.4648 35.8067 47.2475 35.9325 46.996L38.9972 41.2897V47.522C38.9972 49.5461 40.6324 51.1813 42.6565 51.1813H48.1455C50.1696 51.1813 51.8049 49.5461 51.8049 47.522V41.2897L54.881 46.996C55.0182 47.2475 55.1783 47.4648 55.3727 47.6592L51.2217 55.3781C50.5012 56.7161 51.0044 58.3742 52.3423 59.0947C53.6803 59.8151 55.3384 59.3119 56.0588 57.974L59.1235 52.2677V56.6703C59.1235 58.6944 60.7588 60.3297 62.7829 60.3297H68.2719C70.296 60.3297 71.9312 58.6944 71.9312 56.6703V52.2677L75.0074 57.974C75.7278 59.3119 77.3859 59.8036 78.7239 59.0947C80.0618 58.3857 80.5536 56.7161 79.8446 55.3781L75.5105 47.339C73.7609 44.0799 70.3531 42.0444 66.6481 42.0444H64.4067C62.5427 42.0444 60.7588 42.559 59.215 43.4853L55.3727 36.361C53.6231 33.1019 50.2153 31.0664 46.5103 31.0664H44.2803C40.5753 31.0664 37.1789 33.1019 35.4179 36.361L31.5756 43.4853C30.0318 42.559 28.2479 42.0444 26.3839 42.0444H24.154C20.4489 42.0444 17.0526 44.0799 15.2915 47.339L10.9689 55.3667C10.2485 56.7047 10.7516 58.3628 12.0896 59.0832C13.4275 59.8037 15.0857 59.3005 15.8061 57.9625L18.8708 52.2677V56.6703C18.8708 58.6944 20.5061 60.3297 22.5301 60.3297H28.0192C30.0432 60.3297 31.6785 58.6944 31.6785 56.6703V52.2677Z" fill="#0E323D"/>
<circle cx="76.5" cy="74" r="15" fill="white"/>
<path d="M76.3042 61.5L82.0969 66.6136L76.3042 71.7273V68.3182C71.5412 68.3182 68.426 72.7727 70.5371 76.5455L67.7308 79.0227C63.1996 72.9773 68.0913 64.9091 76.3042 64.9091V61.5ZM76.3042 86.5L70.5114 81.3864L76.3042 76.2727V79.6818C81.0671 79.6818 84.1823 75.2273 82.0712 71.4545L84.8775 68.9773C89.4087 75.0227 84.517 83.0909 76.3042 83.0909V86.5Z" fill="#ED3517"/>
</svg>
