<svg width="33" height="40" viewBox="0 0 33 40" fill="none" xmlns="http://www.w3.org/2000/svg">
<path d="M9.03404 25.36C8.66604 25.36 8.41804 25.396 8.29004 25.432V27.788C8.44204 27.824 8.63204 27.834 8.89404 27.834C9.85204 27.834 10.442 27.35 10.442 26.532C10.442 25.8 9.93404 25.36 9.03404 25.36ZM16.008 25.384C15.608 25.384 15.348 25.42 15.194 25.456V30.676C15.348 30.712 15.596 30.712 15.82 30.712C17.454 30.724 18.518 29.824 18.518 27.92C18.53 26.26 17.56 25.384 16.008 25.384Z" fill="#920E0E"/>
<path d="M20.5 0H4.5C3.43913 0 2.42172 0.421427 1.67157 1.17157C0.921427 1.92172 0.5 2.93913 0.5 4V36C0.5 37.0609 0.921427 38.0783 1.67157 38.8284C2.42172 39.5786 3.43913 40 4.5 40H28.5C29.5609 40 30.5783 39.5786 31.3284 38.8284C32.0786 38.0783 32.5 37.0609 32.5 36V12L20.5 0ZM11.496 28.38C10.878 28.96 9.966 29.22 8.904 29.22C8.69808 29.2222 8.49226 29.2102 8.288 29.184V32.036H6.5V24.164C7.30691 24.0436 8.12224 23.9888 8.938 24C10.052 24 10.844 24.212 11.378 24.638C11.886 25.042 12.23 25.704 12.23 26.484C12.228 27.268 11.968 27.93 11.496 28.38ZM19.11 31.09C18.27 31.788 16.992 32.12 15.43 32.12C14.494 32.12 13.832 32.06 13.382 32V24.166C14.1892 24.0482 15.0043 23.9927 15.82 24C17.334 24 18.318 24.272 19.086 24.852C19.916 25.468 20.436 26.45 20.436 27.86C20.436 29.386 19.878 30.44 19.11 31.09ZM26.5 25.54H23.436V27.362H26.3V28.83H23.436V32.038H21.624V24.06H26.5V25.54ZM20.5 14H18.5V4L28.5 14H20.5Z" fill="#920E0E"/>
</svg>
