<svg width="120" height="120" viewBox="0 0 120 120" fill="none" xmlns="http://www.w3.org/2000/svg">
<circle cx="60" cy="60" r="60" fill="#C4C4C4"/>
<path fill-rule="evenodd" clip-rule="evenodd" d="M60.6159 47.9416L68.7412 34.2857L89.1412 68.5714H71.4486C71.5849 67.6382 71.6555 66.6843 71.6555 65.7143C71.6555 57.9816 67.1718 51.2693 60.6159 47.9416ZM60.6159 47.9416C57.8119 46.5184 54.6289 45.7143 51.2555 45.7143C39.9947 45.7143 30.8555 54.6743 30.8555 65.7143C30.8555 76.7543 39.9947 85.7143 51.2555 85.7143C61.5269 85.7143 70.0331 78.2596 71.4486 68.5714H48.3412L60.6159 47.9416Z" fill="#B3B3B3"/>
<path fill-rule="evenodd" clip-rule="evenodd" d="M116.172 80C107.935 103.304 85.7103 120 59.5859 120C33.4615 120 11.2367 103.304 3 80L116.172 80Z" fill="black" fill-opacity="0.65"/>
<path d="M46.52 102.032C45.72 103.408 44.36 104.176 42.664 104.176C39.768 104.176 37.928 101.792 37.928 98.4C37.928 95.008 39.768 92.624 42.664 92.624C44.488 92.624 45.704 93.36 46.472 94.72L44.984 95.648C44.408 94.736 43.816 94.304 42.664 94.304C40.712 94.304 39.656 95.888 39.656 98.4C39.656 100.912 40.712 102.496 42.664 102.496C43.832 102.496 44.552 102.016 45.128 101.104L46.52 102.032ZM54.898 104H53.282V103.168C52.706 103.744 51.89 104.176 50.978 104.176C49.618 104.176 48.066 103.408 48.066 101.344C48.066 99.472 49.506 98.624 51.41 98.624C52.194 98.624 52.818 98.736 53.282 98.944V98.32C53.282 97.408 52.722 96.896 51.698 96.896C50.834 96.896 50.162 97.056 49.506 97.424L48.866 96.176C49.666 95.68 50.562 95.424 51.746 95.424C53.618 95.424 54.898 96.336 54.898 98.24V104ZM53.282 101.616V100.416C52.834 100.192 52.258 100.048 51.362 100.048C50.306 100.048 49.634 100.528 49.634 101.296C49.634 102.128 50.162 102.688 51.25 102.688C52.13 102.688 52.898 102.144 53.282 101.616ZM62.2549 95.776L61.8229 97.344C61.4709 97.152 61.1029 97.04 60.5589 97.04C59.5189 97.04 58.9109 97.776 58.9109 99.2V104H57.2629V95.6H58.9109V96.4C59.2949 95.84 59.9989 95.424 60.8309 95.424C61.5029 95.424 61.9189 95.552 62.2549 95.776ZM70.1853 103.2C70.1853 105.76 69.2573 106.992 66.2173 107.088L65.6573 105.84C68.0253 105.728 68.5373 105.088 68.5373 103.344V103.2C67.9293 103.76 67.2413 104.176 66.3613 104.176C64.5693 104.176 63.1293 102.864 63.1293 99.664C63.1293 96.784 64.7133 95.424 66.4413 95.424C67.2893 95.424 68.0893 95.872 68.5373 96.384V95.6H70.1853V103.2ZM68.5693 101.584V98.048C68.2013 97.552 67.4333 96.944 66.6013 96.944C65.4173 96.944 64.7773 97.84 64.7773 99.616C64.7773 101.728 65.4493 102.656 66.6653 102.656C67.4493 102.656 68.1373 102.128 68.5693 101.584ZM79.0543 104H77.4383V103.168C76.8623 103.744 76.0463 104.176 75.1343 104.176C73.7743 104.176 72.2223 103.408 72.2223 101.344C72.2223 99.472 73.6623 98.624 75.5663 98.624C76.3503 98.624 76.9743 98.736 77.4383 98.944V98.32C77.4383 97.408 76.8783 96.896 75.8543 96.896C74.9903 96.896 74.3183 97.056 73.6623 97.424L73.0223 96.176C73.8223 95.68 74.7183 95.424 75.9023 95.424C77.7743 95.424 79.0543 96.336 79.0543 98.24V104ZM77.4383 101.616V100.416C76.9903 100.192 76.4143 100.048 75.5182 100.048C74.4623 100.048 73.7903 100.528 73.7903 101.296C73.7903 102.128 74.3183 102.688 75.4062 102.688C76.2863 102.688 77.0543 102.144 77.4383 101.616ZM86.4111 95.776L85.9791 97.344C85.6271 97.152 85.2591 97.04 84.7151 97.04C83.6751 97.04 83.0671 97.776 83.0671 99.2V104H81.4191V95.6H83.0671V96.4C83.4511 95.84 84.1551 95.424 84.9871 95.424C85.6591 95.424 86.0751 95.552 86.4111 95.776Z" fill="white"/>
</svg>
