<svg width="166" height="129" viewBox="0 0 166 129" fill="none" xmlns="http://www.w3.org/2000/svg">
<rect y="0.132477" width="166" height="128" rx="20" fill="white"/>
<path d="M133.556 37.225C133.556 38.2944 133.362 39.2671 132.972 40.1432C132.583 41.0064 131.999 41.7537 131.22 42.385C130.46 43.0163 129.505 43.4995 128.355 43.8345C127.224 44.1694 125.908 44.3369 124.406 44.3369C122.848 44.3369 121.495 44.1694 120.345 43.8345C119.196 43.4866 118.241 43.0034 117.48 42.385C116.72 41.7537 116.155 41 115.784 40.1239C115.413 39.2478 115.228 38.2751 115.228 37.2057C115.228 35.7885 115.561 34.5516 116.229 33.4952C116.896 32.4387 117.907 31.6141 119.26 31.0215C120.633 30.4288 122.357 30.1325 124.434 30.1325C126.418 30.1325 128.086 30.4288 129.44 31.0215C130.793 31.6012 131.813 32.4258 132.499 33.4952C133.204 34.5516 133.556 35.7949 133.556 37.225ZM118.481 37.225C118.481 38.3846 118.713 39.3831 119.176 40.2205C119.64 41.058 120.354 41.7022 121.318 42.1531C122.3 42.604 122.922 42.8295 124.406 42.8295C125.908 42.8295 126.215 42.604 127.161 42.1531C128.125 41.7022 128.839 41.058 129.302 40.2205C129.766 39.3831 129.998 38.3846 129.998 37.225C129.998 35.4857 129.394 33.9828 128.355 33.0036C127.317 32.0115 126.677 31.6592 124.434 31.6592C122.932 31.6592 122.3 31.8847 121.318 32.3356C120.354 32.7737 119.64 33.4114 119.176 34.2489C118.713 35.0734 118.481 36.0655 118.481 37.225Z" fill="#ED3517"/>
<path d="M43.2801 37.0149H51.0159V43.3472C49.8049 43.5764 48.5835 43.7452 47.3516 43.8538C46.1197 43.9623 44.7208 44.0166 43.1549 44.0166C40.8373 44.0166 38.8851 43.7513 37.2982 43.2206C35.7114 42.6778 34.5004 41.9119 33.6652 40.9228C32.8509 39.9217 32.4438 38.7397 32.4438 37.3768C32.4438 36.0259 32.9031 34.8559 33.8218 33.8669C34.7405 32.8778 36.0559 32.1119 37.768 31.5692C39.501 31.0143 41.5889 30.7369 44.0318 30.7369C45.2846 30.7369 46.4642 30.8033 47.5708 30.9359C48.6983 31.0686 49.7423 31.2556 50.7027 31.4968L49.6379 32.908C48.8445 32.7029 47.9467 32.5281 46.9445 32.3833C45.9631 32.2386 44.94 32.1662 43.8752 32.1662C42.1005 32.1662 40.5763 32.3773 39.3026 32.7994C38.029 33.2216 37.0581 33.8247 36.39 34.6087C35.7218 35.3806 35.3878 36.3033 35.3878 37.3768C35.3878 38.402 35.6697 39.3126 36.2334 40.1087C36.818 40.8927 37.7263 41.5078 38.9581 41.9541C40.19 42.3883 41.8082 42.6054 43.8126 42.6054C44.4807 42.6054 45.0653 42.5934 45.5664 42.5692C46.0884 42.533 46.5582 42.4908 46.9758 42.4426C47.4142 42.3943 47.8214 42.3461 48.1972 42.2978V38.4623H43.2801V37.0149Z" fill="#ED3517"/>
<path d="M62.5268 30.9178C64.3851 30.9178 65.9093 31.0566 67.0994 31.334C68.3104 31.5993 69.2082 32.0034 69.7928 32.5461C70.3774 33.0889 70.6697 33.7704 70.6697 34.5906C70.6697 35.2781 70.4505 35.851 70.012 36.3093C69.5736 36.7677 69.0098 37.1355 68.3208 37.4129C67.6527 37.6783 66.9428 37.8894 66.1911 38.0462L72.3296 43.8357H69.0412L63.623 38.4985H59.1757V43.8357H56.357V30.9178H62.5268ZM62.3702 32.329H59.1757V37.1235H62.5268C63.7378 37.1235 64.7296 37.033 65.5021 36.8521C66.2747 36.6591 66.8384 36.3817 67.1933 36.0198C67.5692 35.658 67.7571 35.2057 67.7571 34.6629C67.7571 34.096 67.5587 33.6437 67.162 33.306C66.7862 32.9683 66.2016 32.721 65.4082 32.5642C64.6148 32.4074 63.6021 32.329 62.3702 32.329Z" fill="#ED3517"/>
<path d="M92.8457 39.2764C92.8457 40.169 92.5325 40.9771 91.9062 41.7008C91.2798 42.4124 90.3193 42.9793 89.0248 43.4015C87.7512 43.8116 86.1226 44.0166 84.1391 44.0166C81.3621 44.0166 79.2429 43.5824 77.7813 42.714C76.3407 41.8335 75.6203 40.6756 75.6203 39.2403V30.9178H78.439V39.2945C78.439 40.3439 78.9193 41.158 79.8797 41.737C80.861 42.3159 82.333 42.6054 84.2957 42.6054C85.6528 42.6054 86.749 42.4667 87.5841 42.1893C88.4402 41.8998 89.0666 41.5078 89.4633 41.0133C89.86 40.5067 90.0583 39.9278 90.0583 39.2764V30.9178H92.8457V39.2764Z" fill="#ED3517"/>
<path d="M104.667 30.9178C107.59 30.9178 109.72 31.2495 111.056 31.9129C112.392 32.5763 113.06 33.5111 113.06 34.7172C113.06 35.2479 112.904 35.7605 112.591 36.255C112.298 36.7375 111.808 37.1717 111.119 37.5577C110.43 37.9437 109.511 38.2512 108.363 38.4804C107.214 38.6975 105.805 38.806 104.134 38.806H101.566V43.8357H98.7476V30.9178H104.667ZM104.416 32.3109H101.566V37.4129H103.821C105.241 37.4129 106.421 37.3285 107.36 37.1597C108.3 36.9787 108.999 36.6953 109.459 36.3093C109.918 35.9234 110.148 35.4168 110.148 34.7896C110.148 33.9573 109.688 33.3362 108.77 32.9261C107.851 32.516 106.4 32.3109 104.416 32.3109Z" fill="#ED3517"/>
<path d="M74.64 84.5543C71.4454 88.8625 64.0682 91.1814 53.218 91.1814C38.2711 91.1814 30 86.6153 30 78.4372H43.3553C43.3553 81.5703 46.844 83.3214 53.218 83.3214C59.5128 83.3214 63.0808 81.7823 63.0808 78.9673C63.0808 76.1994 57.9076 75.5662 51.7103 74.8077C42.4538 73.6748 30.9127 72.2622 30.9127 63.039C30.9127 55.8736 38.8784 51.8925 53.218 51.8925C67.5577 51.8925 75.5233 56.0857 75.5233 63.591H62.1756C62.1756 61.1453 58.9886 59.7671 53.2256 59.7671C47.4625 59.7671 44.2718 60.9333 44.2718 63.0573C44.2718 65.8159 49.4363 66.4463 55.6262 67.202C61.7709 67.9521 68.9261 68.8255 73.0424 72.0267L68.0317 75.5468V84.5543H74.64Z" fill="#ED3517"/>
<path d="M76.4323 84.5543V98.1325H107.133V84.5543H76.4323Z" fill="#ED3517"/>
<path d="M122.559 98.1325H136V52.7991H122.559V75.4658H133.862V84.5543H122.559V98.1325Z" fill="#ED3517"/>
<path d="M100.412 52.7991H76.4323V69.6453L100.412 52.7991Z" fill="#ED3517"/>
<path d="M107.133 75.4658V62.1119L88.9568 75.4658H107.133Z" fill="#ED3517"/>
</svg>
