<svg width="108" height="76" viewBox="0 0 108 76" fill="none" xmlns="http://www.w3.org/2000/svg">
<path d="M95.0757 16.2366C95.0757 17.1016 94.9157 17.8883 94.5958 18.5969C94.2759 19.2951 93.7961 19.8995 93.1563 20.4101C92.5318 20.9208 91.7473 21.3115 90.8029 21.5825C89.8736 21.8534 88.7921 21.9889 87.5583 21.9889C86.2787 21.9889 85.1667 21.8534 84.2223 21.5825C83.2778 21.3011 82.4934 20.9103 81.8688 20.4101C81.2443 19.8995 80.7797 19.2899 80.475 18.5813C80.1703 17.8727 80.018 17.0859 80.018 16.221C80.018 15.0747 80.2922 14.0743 80.8406 13.2198C81.389 12.3653 82.2192 11.6984 83.3312 11.219C84.4584 10.7397 85.875 10.5 87.5811 10.5C89.211 10.5 90.582 10.7397 91.694 11.219C92.806 11.688 93.6438 12.3549 94.2074 13.2198C94.7862 14.0743 95.0757 15.0799 95.0757 16.2366ZM82.6906 16.2366C82.6906 17.1745 82.881 17.9821 83.2618 18.6595C83.6427 19.3368 84.2291 19.8578 85.0212 20.2226C85.8286 20.5873 86.3396 20.7697 87.5583 20.7697C88.7921 20.7697 89.0446 20.5873 89.8215 20.2226C90.6136 19.8578 91.2 19.3368 91.5809 18.6595C91.9617 17.9821 92.1521 17.1745 92.1521 16.2366C92.1521 14.8298 91.6559 13.6142 90.8029 12.8222C89.9498 12.0198 89.4243 11.7349 87.5811 11.7349C86.3472 11.7349 85.8286 11.9172 85.0212 12.282C84.2291 12.6363 83.6427 13.1521 83.2618 13.8294C82.881 14.4964 82.6906 15.2988 82.6906 16.2366Z" fill="white"/>
<path d="M20.9102 16.0667H27.2654V21.1884C26.2705 21.3737 25.2671 21.5103 24.255 21.5981C23.243 21.6859 22.0938 21.7298 20.8073 21.7298C18.9033 21.7298 17.2994 21.5152 15.9958 21.0859C14.6922 20.6469 13.6973 20.0275 13.0111 19.2275C12.3422 18.4178 12.0077 17.4617 12.0077 16.3594C12.0077 15.2667 12.3851 14.3204 13.1398 13.5205C13.8945 12.7205 14.9752 12.101 16.3817 11.662C17.8055 11.2133 19.5208 10.9889 21.5277 10.9889C22.5569 10.9889 23.526 11.0425 24.4352 11.1499C25.3614 11.2572 26.2191 11.4084 27.0081 11.6035L26.1333 12.7449C25.4815 12.5791 24.7439 12.4376 23.9206 12.3205C23.1144 12.2035 22.2739 12.1449 21.399 12.1449C19.941 12.1449 18.6888 12.3157 17.6425 12.6571C16.5962 12.9985 15.7985 13.4863 15.2496 14.1204C14.7007 14.7448 14.4263 15.4911 14.4263 16.3594C14.4263 17.1886 14.6578 17.9251 15.121 18.569C15.6013 19.2031 16.3474 19.7006 17.3595 20.0616C18.3715 20.4128 19.7009 20.5884 21.3476 20.5884C21.8965 20.5884 22.3768 20.5787 22.7885 20.5591C23.2173 20.5299 23.6032 20.4957 23.9463 20.4567C24.3065 20.4177 24.641 20.3787 24.9498 20.3396V17.2374H20.9102V16.0667Z" fill="white"/>
<path d="M36.7221 11.1352C38.2488 11.1352 39.5009 11.2474 40.4787 11.4718C41.4736 11.6864 42.2111 12.0132 42.6914 12.4522C43.1717 12.8912 43.4119 13.4424 43.4119 14.1058C43.4119 14.6619 43.2318 15.1253 42.8715 15.496C42.5113 15.8667 42.0482 16.1642 41.4821 16.3886C40.9332 16.6032 40.35 16.774 39.7325 16.9008L44.7755 21.5835H42.0739L37.6227 17.2666H33.969V21.5835H31.6534V11.1352H36.7221ZM36.5935 12.2766H33.969V16.1545H36.7221C37.717 16.1545 38.5318 16.0813 39.1664 15.935C39.8011 15.7789 40.2642 15.5545 40.5559 15.2618C40.8646 14.9692 41.019 14.6033 41.019 14.1643C41.019 13.7058 40.856 13.34 40.5301 13.0668C40.2214 12.7937 39.7411 12.5937 39.0893 12.4669C38.4374 12.34 37.6055 12.2766 36.5935 12.2766Z" fill="white"/>
<path d="M61.6303 17.8959C61.6303 18.6178 61.373 19.2714 60.8584 19.8567C60.3438 20.4323 59.5548 20.8908 58.4913 21.2323C57.445 21.564 56.107 21.7298 54.4775 21.7298C52.1961 21.7298 50.455 21.3786 49.2543 20.6762C48.0708 19.964 47.479 19.0275 47.479 17.8666V11.1352H49.7946V17.9105C49.7946 18.7592 50.1892 19.4177 50.9782 19.886C51.7844 20.3543 52.9937 20.5884 54.6061 20.5884C55.7211 20.5884 56.6216 20.4762 57.3077 20.2518C58.011 20.0177 58.5256 19.7006 58.8515 19.3007C59.1774 18.8909 59.3404 18.4227 59.3404 17.8959V11.1352H61.6303V17.8959Z" fill="white"/>
<path d="M71.3419 11.1352C73.7434 11.1352 75.493 11.4035 76.5908 11.9401C77.6886 12.4766 78.2375 13.2327 78.2375 14.2082C78.2375 14.6375 78.1088 15.0521 77.8515 15.4521C77.6114 15.8423 77.2083 16.1935 76.6422 16.5057C76.0762 16.8179 75.3214 17.0666 74.378 17.252C73.4346 17.4276 72.2768 17.5154 70.9045 17.5154H68.7947V21.5835H66.479V11.1352H71.3419ZM71.1361 12.262H68.7947V16.3886H70.6472C71.8136 16.3886 72.7828 16.3203 73.5547 16.1837C74.3266 16.0374 74.9012 15.8082 75.2786 15.496C75.6559 15.1838 75.8446 14.7741 75.8446 14.2668C75.8446 13.5936 75.4672 13.0912 74.7125 12.7595C73.9578 12.4278 72.7656 12.262 71.1361 12.262Z" fill="white"/>
<path d="M46.6736 54.5176C44.0491 58.0022 37.9884 59.8778 29.0746 59.8778C16.7951 59.8778 10 56.1846 10 49.57H20.9719C20.9719 52.1041 23.838 53.5205 29.0746 53.5205C34.246 53.5205 37.1772 52.2756 37.1772 49.9988C37.1772 47.76 32.9272 47.2479 27.8359 46.6344C20.2313 45.718 10.7498 44.5755 10.7498 37.1156C10.7498 31.3201 17.2939 28.1 29.0746 28.1C40.8552 28.1 47.3993 31.4916 47.3993 37.5621H36.4336C36.4336 35.5839 33.8153 34.4692 29.0808 34.4692C24.3462 34.4692 21.7248 35.4124 21.7248 37.1304C21.7248 39.3616 25.9677 39.8715 31.0529 40.4827C36.1011 41.0894 41.9794 41.7959 45.3611 44.385L41.2446 47.2322V54.5176H46.6736Z" fill="white"/>
<path d="M48.146 54.5176V65.5H73.3676V54.5176H48.146Z" fill="white"/>
<path d="M86.0411 65.5H97.0833V28.8333H86.0411V47.1667H95.3266V54.5176H86.0411V65.5Z" fill="white"/>
<path d="M67.8464 28.8333H48.146V42.4589L67.8464 28.8333Z" fill="white"/>
<path d="M73.3676 47.1667V36.3657L58.4354 47.1667H73.3676Z" fill="white"/>
</svg>
